<svg width="57" height="57" viewBox="0 0 57 57" fill="none" xmlns="http://www.w3.org/2000/svg">
<path d="M36.2541 14.1264H32.1049C30.2709 14.1264 28.512 14.855 27.2152 16.1518C25.9183 17.4487 25.1898 19.2076 25.1898 21.0416V25.1907H21.0406V30.7228H25.1898V41.7871H30.7219V30.7228H34.871L36.2541 25.1907H30.7219V21.0416C30.7219 20.6748 30.8676 20.323 31.127 20.0636C31.3864 19.8043 31.7381 19.6586 32.1049 19.6586H36.2541V14.1264Z" stroke="white" stroke-width="2" stroke-linecap="round" stroke-linejoin="round"/>
<path d="M56.9994 28.6483C56.9994 21.3932 54.2182 14.4142 49.2282 9.14771C44.2382 3.88123 37.4191 0.728052 30.1746 0.337195C22.9301 -0.0536624 15.8114 2.34755 10.2837 7.04657C4.75605 11.7456 1.24008 18.3849 0.4595 25.5978C-0.321079 32.8108 1.69313 40.0485 6.08754 45.8213C10.4819 51.5941 16.9222 55.4626 24.0826 56.6307C31.243 57.7987 38.5787 56.1773 44.5799 52.1003C50.581 48.0233 54.7909 41.8008 56.343 34.7138L55.3855 34.504C53.887 41.3461 49.8227 47.3534 44.029 51.2895C38.2354 55.2256 31.1533 56.7909 24.2404 55.6632C17.3275 54.5356 11.11 50.8008 6.86751 45.2276C2.62503 39.6544 0.68046 32.6669 1.43405 25.7033C2.18764 18.7397 5.58205 12.33 10.9186 7.79342C16.2551 3.25686 23.1278 0.938669 30.1218 1.31601C37.1159 1.69336 43.6992 4.73752 48.5166 9.82192C53.3341 14.9063 56.0192 21.644 56.0192 28.6483H56.9994Z" fill="white"/>
</svg>
