<svg width="57" height="57" viewBox="0 0 57 57" fill="none" xmlns="http://www.w3.org/2000/svg">
<path d="M15.2135 28.6483C15.2135 22.4551 15.2135 19.3571 17.1373 17.4333C19.0611 15.5095 22.1577 15.5095 28.3523 15.5095C34.5456 15.5095 37.6436 15.5095 39.5674 17.4333C41.4912 19.3571 41.4912 22.4537 41.4912 28.6483C41.4912 34.8415 41.4912 37.9395 39.5674 39.8634C37.6436 41.7872 34.5469 41.7872 28.3523 41.7872C22.1591 41.7872 19.0611 41.7872 17.1373 39.8634C15.2135 37.9395 15.2135 34.8429 15.2135 28.6483Z" stroke="white" stroke-width="2" stroke-linecap="round" stroke-linejoin="round"/>
<path d="M35.97 21.0416H35.9562M34.5759 28.6483C34.5759 30.2989 33.9202 31.8819 32.7531 33.0491C31.5859 34.2162 30.0029 34.8719 28.3523 34.8719C26.7016 34.8719 25.1186 34.2162 23.9515 33.0491C22.7843 31.8819 22.1286 30.2989 22.1286 28.6483C22.1286 26.9976 22.7843 25.4146 23.9515 24.2475C25.1186 23.0803 26.7016 22.4246 28.3523 22.4246C30.0029 22.4246 31.5859 23.0803 32.7531 24.2475C33.9202 25.4146 34.5759 26.9976 34.5759 28.6483Z" stroke="white" stroke-width="2" stroke-linecap="round" stroke-linejoin="round"/>
<path d="M56.7045 28.6483C56.7045 21.3932 53.9233 14.4142 48.9333 9.14771C43.9433 3.88123 37.1242 0.728052 29.8797 0.337195C22.6352 -0.0536624 15.5164 2.34755 9.98879 7.04657C4.46113 11.7456 0.945157 18.3849 0.164578 25.5978C-0.616001 32.8108 1.39821 40.0485 5.79262 45.8213C10.187 51.5941 16.6272 55.4626 23.7877 56.6307C30.9481 57.7987 38.2838 56.1773 44.285 52.1003C50.2861 48.0233 54.496 41.8008 56.0481 34.7138L55.0906 34.504C53.5921 41.3461 49.5278 47.3534 43.7341 51.2895C37.9405 55.2256 30.8583 56.7909 23.9455 55.6632C17.0326 54.5356 10.8151 50.8008 6.57259 45.2276C2.33011 39.6544 0.385538 32.6669 1.13913 25.7033C1.89272 18.7397 5.28713 12.33 10.6237 7.79342C15.9602 3.25686 22.8328 0.938669 29.8269 1.31601C36.8209 1.69336 43.4042 4.73752 48.2217 9.82192C53.0392 14.9063 55.7243 21.644 55.7243 28.6483H56.7045Z" fill="white"/>
</svg>
