<svg width="32" height="30" viewBox="0 0 32 30" fill="none" xmlns="http://www.w3.org/2000/svg">
<path fill-rule="evenodd" clip-rule="evenodd" d="M31.4107 26.1437C31.4419 26.5905 31.2946 27.0314 31.001 27.3697C30.7074 27.7079 30.2915 27.9158 29.8448 27.9476L10.7706 29.2949C10.5449 29.3189 10.3167 29.2971 10.0996 29.231C9.88245 29.1648 9.68087 29.0556 9.50688 28.9099C9.33288 28.7642 9.19001 28.5849 9.08681 28.3827C8.9836 28.1806 8.92218 27.9597 8.90618 27.7333C8.89019 27.5069 8.91997 27.2796 8.99373 27.0649C9.06749 26.8503 9.18373 26.6527 9.33552 26.4839C9.48731 26.3152 9.67153 26.1787 9.87719 26.0827C10.0829 25.9867 10.3058 25.9331 10.5326 25.9251L25.5376 24.8653L1.38923 3.90321C1.05072 3.60937 0.842805 3.19308 0.811223 2.74595C0.779639 2.29881 0.926974 1.85744 1.22082 1.51893C1.51466 1.18043 1.93093 0.972513 2.37807 0.940931C2.82521 0.909346 3.26658 1.05668 3.60509 1.35052L27.7535 22.3126L26.6936 7.30756C26.6696 7.08186 26.6914 6.85364 26.7575 6.63652C26.8237 6.4194 26.9329 6.21783 27.0786 6.04383C27.2243 5.86983 27.4036 5.72697 27.6058 5.62376C27.8079 5.52056 28.0288 5.45913 28.2552 5.44314C28.4816 5.42715 28.7089 5.45692 28.9236 5.53068C29.1382 5.60445 29.3358 5.72069 29.5046 5.87247C29.6733 6.02426 29.8098 6.20848 29.9058 6.41415C30.0018 6.61981 30.0554 6.84271 30.0634 7.06954L31.4107 26.1437Z" fill="white"/>
</svg>
