<svg width="57" height="57" viewBox="0 0 57 57" fill="none" xmlns="http://www.w3.org/2000/svg">
<path d="M15.3615 39.7127C17.8025 41.1247 20.6364 41.7872 23.6597 41.7872C32.6218 41.7872 39.927 34.6826 40.2451 25.7965L43.0222 20.3501L38.3835 21.0417C37.3728 20.1503 36.0715 19.6585 34.724 19.6586C31.1668 19.6586 28.5003 23.1397 29.3578 26.5462C24.4452 26.8643 19.9932 23.8368 17.418 19.8038C15.7086 25.6085 17.2936 32.5983 21.5851 36.9065C21.5851 38.5329 17.436 39.5038 15.3615 39.7127Z" stroke="white" stroke-width="2" stroke-linecap="round" stroke-linejoin="round"/>
<path d="M56.8525 28.6483C56.8525 21.3932 54.0712 14.4142 49.0812 9.14771C44.0912 3.88123 37.2722 0.728052 30.0276 0.337195C22.7831 -0.0536624 15.6644 2.34755 10.1367 7.04657C4.60908 11.7456 1.09311 18.3849 0.312527 25.5978C-0.468052 32.8108 1.54616 40.0485 5.94057 45.8213C10.335 51.5941 16.7752 55.4626 23.9356 56.6307C31.096 57.7987 38.4318 56.1773 44.4329 52.1003C50.4341 48.0233 54.644 41.8008 56.196 34.7138L55.2385 34.504C53.7401 41.3461 49.6757 47.3534 43.8821 51.2895C38.0884 55.2256 31.0063 56.7909 24.0934 55.6632C17.1806 54.5356 10.963 50.8008 6.72054 45.2276C2.47806 39.6544 0.533487 32.6669 1.28708 25.7033C2.04067 18.7397 5.43508 12.33 10.7716 7.79342C16.1082 3.25686 22.9808 0.938669 29.9748 1.31601C36.9689 1.69336 43.5522 4.73752 48.3697 9.82192C53.1871 14.9063 55.8722 21.644 55.8722 28.6483H56.8525Z" fill="white"/>
</svg>
