<svg width="26" height="28" viewBox="0 0 26 28" fill="none" xmlns="http://www.w3.org/2000/svg">
<path d="M7.60533 14.5449L1.07978 25.5935C0.767101 26.2613 0.923702 27.05 1.46293 27.5497C2.00216 28.0505 2.80135 28.1434 3.44184 27.7808L12.3832 22.7385L7.62935 14.5027L7.60481 14.5444L7.60533 14.5449Z" fill="#008FC5"/>
<path d="M3.36343 0.893301C2.72502 0.540142 1.93053 0.634039 1.39339 1.13013C0.857818 1.62518 0.699652 2.40766 1.00346 3.07277L7.6663 14.3765L12.5658 6.00655L3.36343 0.893301Z" fill="#225189"/>
<path d="M24.7824 12.7932L12.6051 6.0274L12.5654 6.00653L7.6659 14.3765L7.68521 14.4109L7.62988 14.5032L12.3838 22.7391L12.3911 22.7344L24.7918 15.7406C25.3221 15.4422 25.6505 14.8788 25.6505 14.269V14.2633C25.6489 13.6519 25.3164 13.0901 24.7824 12.7932Z" fill="#0067A2"/>
</svg>
