<svg width="102" height="80" viewBox="0 0 102 80" fill="none" xmlns="http://www.w3.org/2000/svg">
<g clip-path="url(#clip0_154_1211)">
<path d="M5.78426 66.266C5.07079 66.8569 4.19459 67.1133 2.83232 67.1133C2.45295 67.1133 2.24063 67.0986 1.90977 67.068V70.412H0V60.6342H3.42184C4.72376 60.6342 5.45016 60.8547 6.06879 61.433C6.63245 61.9817 6.91697 62.7204 6.91697 63.6258C6.91697 64.7084 6.52575 65.6434 5.78318 66.2649L5.78426 66.266ZM3.2397 62.2212H1.90869V65.4809L2.14902 65.4935H2.39044C2.60276 65.5115 2.73963 65.5115 2.81507 65.5115C4.3002 65.5115 4.95009 64.9744 4.95009 63.7746C4.95009 62.7098 4.41876 62.2212 3.23863 62.2212H3.2397Z" fill="white"/>
<path d="M15.0788 70.412L12.7929 66.5034H11.8412V70.412H9.93359V60.6342H13.2628C14.7177 60.6342 15.3816 60.8093 15.9733 61.3581C16.5186 61.8498 16.7881 62.5589 16.7881 63.478C16.7881 64.2346 16.6092 64.8414 16.246 65.3142C15.8677 65.7911 15.5195 65.999 14.6875 66.2185L17.1674 70.411H15.0788V70.412ZM13.0817 62.2212H11.8423V64.9174H13.0817C14.2942 64.9174 14.8222 64.5037 14.8222 63.5245C14.8222 62.5452 14.3222 62.2212 13.0817 62.2212Z" fill="white"/>
<path d="M24.7106 70.6052C21.5905 70.6052 19.4113 68.5031 19.3962 65.5231C19.3962 62.4977 21.5463 60.4537 24.7106 60.4537C27.8749 60.4537 30.0066 62.4988 30.0066 65.5231C30.0066 68.5474 27.8124 70.6052 24.7106 70.6052ZM24.7106 62.0704C22.8181 62.0704 21.4246 63.554 21.4246 65.5231C21.4246 67.4922 22.8181 68.979 24.7106 68.979C26.6031 68.979 27.9816 67.5101 27.9816 65.5231C27.9816 63.5361 26.5859 62.0704 24.7106 62.0704Z" fill="white"/>
<path d="M36.9732 66.2206V70.4131H35.0666V66.2206L32.0231 60.6353H34.1117L36.112 64.4563L38.2158 60.6353H40.3045L36.9732 66.2206Z" fill="white"/>
<path d="M43.1963 70.4121V60.6342H49.2812V62.2202H45.1028V64.6325H48.5268V66.2186H45.1028V68.8303H49.4785V70.411H43.1963V70.4121Z" fill="white"/>
<path d="M59.5918 62.8692C58.9409 62.4133 58.1692 62.1907 57.2898 62.1907C55.3682 62.1907 53.993 63.5234 53.993 65.3754C53.993 67.4806 55.4145 68.8587 57.5937 68.8587C58.3072 68.8587 58.8978 68.7416 59.788 68.4008L60.1372 69.972C59.5024 70.2527 59.2459 70.3435 58.7878 70.4458C58.3061 70.5482 57.7748 70.6052 57.1863 70.6052C55.6257 70.6052 54.507 70.2221 53.5672 69.3959C52.5057 68.4609 51.8849 67.0068 51.8849 65.4809C51.8849 64.0542 52.4302 62.7668 53.4153 61.8171C54.4144 60.8547 55.5341 60.4537 57.1852 60.4537C58.4559 60.4537 59.4539 60.7524 60.3182 61.3887L59.5918 62.8692Z" fill="white"/>
<path d="M70.268 62.8692C69.617 62.4133 68.8432 62.1907 67.967 62.1907C66.0421 62.1907 64.6648 63.5234 64.6648 65.3754C64.6648 67.4806 66.0896 68.8587 68.2666 68.8587C68.9801 68.8587 69.5696 68.7416 70.4609 68.4008L70.8101 69.972C70.1753 70.2527 69.9188 70.3435 69.4607 70.4458C68.979 70.5482 68.4477 70.6052 67.856 70.6052C66.2986 70.6052 65.1767 70.2221 64.2401 69.3959C63.1796 68.4609 62.5599 67.0068 62.5599 65.4809C62.5599 64.0542 63.1031 62.7668 64.0893 61.8171C65.0883 60.8547 66.2081 60.4537 67.856 60.4537C69.1299 60.4537 70.1279 60.7524 70.9911 61.3887L70.2658 62.8692H70.268Z" fill="white"/>
<path d="M74.1737 70.412V60.6342H76.0813V70.412H74.1737Z" fill="white"/>
<path d="M84.6956 70.6052C81.5767 70.6052 79.3964 68.5031 79.3845 65.5231C79.3845 62.4977 81.5314 60.4537 84.6956 60.4537C87.8599 60.4537 89.9949 62.4988 89.9949 65.5231C89.9949 68.5474 87.8006 70.6052 84.6956 70.6052ZM84.6956 62.0704C82.8042 62.0704 81.4096 63.554 81.4096 65.5231C81.4096 67.4922 82.8053 68.979 84.6956 68.979C86.586 68.979 87.9666 67.5101 87.9666 65.5231C87.9666 63.5361 86.5731 62.0704 84.6956 62.0704ZM85.241 60.1889H83.8324L85.2722 58.4393H86.9524L85.241 60.1889Z" fill="white"/>
<path d="M100.003 70.5059L95.7189 64.1724C95.6876 64.1333 95.6122 63.9972 95.5066 63.7893C95.4311 63.6722 95.402 63.5962 95.387 63.5815C95.3255 63.4633 95.2975 63.4031 95.2501 63.2406V70.412H93.4341V60.6342H95.6284L99.8219 67.0669C99.8359 67.0975 99.8822 67.1661 99.9264 67.2748C99.9728 67.3772 100.003 67.4341 100.019 67.4647L100.109 67.718L100.201 67.8963V60.6342H102.001V70.5049H100.004L100.003 70.5059Z" fill="white"/>
<path d="M23.9885 76.0608C23.6339 75.8138 23.2912 75.7104 22.8364 75.7104C21.8427 75.7104 21.1314 76.4618 21.1314 77.5107C21.1314 78.6662 21.847 79.4259 22.9485 79.4259C23.3494 79.4259 23.6544 79.3626 24.0295 79.2086L24.1944 79.6549C23.9098 79.7784 23.7956 79.8238 23.5596 79.8786C23.3257 79.9325 23.1328 79.9567 22.914 79.9567C21.4989 79.9567 20.4988 78.9585 20.4988 77.5476C20.4988 76.1368 21.514 75.1891 22.858 75.1891C23.163 75.1891 23.4604 75.2345 23.7385 75.3432C23.9433 75.4129 24.0413 75.4667 24.2784 75.6271L23.9864 76.0608H23.9885Z" fill="white"/>
<path d="M28.5765 79.9578C27.2131 79.9578 26.2184 78.9563 26.2184 77.5698C26.2184 76.1832 27.2131 75.1902 28.5765 75.1902C29.9398 75.1902 30.9314 76.1916 30.9314 77.5698C30.9314 78.9479 29.9409 79.9578 28.5765 79.9578ZM28.5765 75.6872C27.6324 75.6872 26.8575 76.5377 26.8575 77.5687C26.8575 78.5997 27.6324 79.4534 28.5765 79.4534C29.5206 79.4534 30.289 78.6028 30.289 77.5687C30.289 76.5346 29.5174 75.6872 28.5765 75.6872Z" fill="white"/>
<path d="M36.6498 79.9061L34.2809 76.3235C34.2605 76.2876 34.2249 76.2328 34.1904 76.161C34.1592 76.1156 34.1398 76.085 34.1322 76.0618C34.1042 76.0101 34.0891 75.9742 34.0643 75.8835V79.8639H33.478V75.2736H34.2389L36.5647 78.7749C36.5852 78.8023 36.6067 78.8413 36.6283 78.8867C36.6563 78.9564 36.6638 78.9595 36.7145 79.0946C36.7188 79.103 36.7264 79.1336 36.7425 79.1642V75.2736H37.3234V79.9061H36.652H36.6498Z" fill="white"/>
<path d="M42.6594 76.0492C42.419 75.911 42.3177 75.8656 42.1701 75.8139C41.9901 75.7569 41.7077 75.7179 41.5234 75.7179C40.991 75.7179 40.6268 75.9743 40.6268 76.3637C40.6268 76.7077 40.8337 76.8828 41.7853 77.3735C42.1043 77.5424 42.3533 77.6933 42.5257 77.841C42.7521 78.0278 42.8857 78.3412 42.8857 78.6768C42.8857 79.464 42.2886 79.9589 41.3424 79.9589C41.0255 79.9589 40.7259 79.8987 40.477 79.8016C40.3002 79.7352 40.1784 79.6623 39.8734 79.464L40.1709 79.0113C40.4338 79.1833 40.5481 79.2466 40.7119 79.3099C40.9199 79.3859 41.1462 79.4281 41.3898 79.4281C41.9427 79.4281 42.2757 79.1717 42.2757 78.7348C42.2757 78.6018 42.2542 78.4879 42.2067 78.4056C42.1281 78.2663 41.9912 78.1344 41.809 78.0288C41.7304 77.9866 41.4652 77.8537 41.0266 77.6183C40.3218 77.2501 40.0243 76.886 40.0243 76.4154C40.0243 75.6851 40.6418 75.1945 41.5719 75.1945C41.8414 75.1945 42.1205 75.2303 42.3608 75.3063C42.5548 75.3728 42.6691 75.4266 42.931 75.5775L42.6615 76.0513L42.6594 76.0492Z" fill="white"/>
<path d="M48.5126 79.5716C48.1645 79.8523 47.7334 80 47.2247 80C46.716 80 46.2806 79.8523 45.9336 79.5716C45.5424 79.2613 45.385 78.8899 45.385 78.2894V75.2736H45.9691V78.1206C45.9691 78.6873 46.009 78.8477 46.2386 79.0946C46.4714 79.3478 46.813 79.4924 47.2193 79.4924C47.6256 79.4924 47.9651 79.3478 48.199 79.0946C48.4275 78.8477 48.4706 78.6873 48.4706 78.1206V75.2736H49.0526V78.2894C49.0526 78.9015 48.9017 79.2603 48.5126 79.5716Z" fill="white"/>
<path d="M51.901 79.8639V75.2736H52.4851V79.3848H54.5814V79.8639H51.9021H51.901Z" fill="white"/>
<path d="M57.5559 75.7505V79.8639H56.975V75.7505H55.4102V75.2736H59.1187V75.7505H57.5549H57.5559Z" fill="white"/>
<path d="M63.3187 79.9578C61.9532 79.9578 60.9574 78.9563 60.9574 77.5698C60.9574 76.1832 61.9522 75.1902 63.3187 75.1902C64.6853 75.1902 65.6704 76.1916 65.6704 77.5698C65.6704 78.9479 64.6832 79.9578 63.3187 79.9578ZM63.3187 75.6872C62.3714 75.6872 61.5987 76.5377 61.5987 77.5687C61.5987 78.5997 62.3714 79.4534 63.3187 79.4534C64.2661 79.4534 65.0313 78.6028 65.0313 77.5687C65.0313 76.5346 64.2531 75.6872 63.3187 75.6872Z" fill="white"/>
<path d="M70.7207 79.8639L69.4274 77.8948H68.8034V79.8639H68.2192V75.2736H69.6483C70.2163 75.2736 70.4847 75.3548 70.7563 75.6112C70.9858 75.8286 71.127 76.16 71.127 76.5135C71.127 76.867 70.9772 77.2194 70.7142 77.4632C70.5202 77.6531 70.351 77.7375 70.0029 77.8156L71.3889 79.8639H70.7207ZM70.2454 75.8835C70.1042 75.7716 69.9803 75.7505 69.5643 75.7505H68.8034V77.4178H69.5643C70.1818 77.4178 70.5008 77.1076 70.5008 76.5156C70.5008 76.2233 70.4178 76.0154 70.2454 75.8824V75.8835Z" fill="white"/>
<path d="M73.7889 79.8639V75.2736H76.4273V75.7505H74.3731V77.2827H76.0738V77.7618H74.3731V79.3848H76.4887V79.8639H73.7889Z" fill="white"/>
<path d="M81.4076 76.0492C81.164 75.911 81.0659 75.8656 80.9183 75.8139C80.7383 75.7569 80.4548 75.7179 80.2716 75.7179C79.736 75.7179 79.3739 75.9743 79.3739 76.3637C79.3739 76.7077 79.5819 76.8828 80.5324 77.3735C80.8525 77.5424 81.1004 77.6933 81.2718 77.841C81.4992 78.0278 81.635 78.3412 81.635 78.6768C81.635 79.464 81.0379 79.9589 80.0916 79.9589C79.7716 79.9589 79.473 79.8987 79.2262 79.8016C79.0462 79.7352 78.9277 79.6623 78.6227 79.464L78.9201 79.0113C79.1831 79.1833 79.2973 79.2466 79.4612 79.3099C79.6659 79.3859 79.8955 79.4281 80.1358 79.4281C80.6919 79.4281 81.0239 79.1717 81.0239 78.7348C81.0239 78.6018 81.0023 78.4879 80.9528 78.4056C80.8762 78.2663 80.7383 78.1344 80.554 78.0288C80.4753 77.9866 80.2134 77.8537 79.7716 77.6183C79.0689 77.2501 78.7693 76.886 78.7693 76.4154C78.7693 75.6851 79.39 75.1945 80.3201 75.1945C80.5896 75.1945 80.8687 75.2303 81.1101 75.3063C81.2998 75.3728 81.414 75.4266 81.6781 75.5775L81.4087 76.0513L81.4076 76.0492Z" fill="white"/>
<path d="M40.9199 28.0451L27.447 50.3952C26.8014 51.7459 27.1247 53.3414 28.238 54.3523C29.3514 55.3653 31.0014 55.5532 32.3238 54.8198L50.7845 44.6198L40.9695 27.9597L40.9188 28.0441L40.9199 28.0451Z" fill="#008FC5"/>
<path d="M32.1621 0.429455C30.844 -0.284944 29.2037 -0.0950002 28.0947 0.908535C26.9889 1.90996 26.6624 3.49282 27.2896 4.83826L41.046 27.7043L51.1617 10.7729L32.1621 0.429455Z" fill="#225189"/>
<path d="M76.3842 24.5016L51.2426 10.8152L51.1607 10.7729L41.0449 27.7043L41.0848 27.774L40.9706 27.9607L50.7856 44.6209L50.8007 44.6114L76.4036 30.4638C77.4986 29.8602 78.1765 28.7205 78.1765 27.4869V27.4753C78.1733 26.2386 77.4868 25.1021 76.3842 24.5016Z" fill="#0067A2"/>
</g>
<defs>
<clipPath id="clip0_154_1211">
<rect width="102" height="80" fill="white"/>
</clipPath>
</defs>
</svg>
