<svg width="167" height="56" viewBox="0 0 167 56" fill="none" xmlns="http://www.w3.org/2000/svg">
<path d="M13.9461 28.4129L0.473222 50.763C-0.172347 52.1137 0.150978 53.7092 1.26429 54.7201C2.3776 55.7331 4.02763 55.921 5.35002 55.1876L23.8107 44.9876L13.9957 28.3275L13.945 28.4119L13.9461 28.4129Z" fill="#008FC5"/>
<path d="M5.18837 0.797253C3.87028 0.0828542 2.22995 0.272798 1.12095 1.27633C0.0151846 2.27776 -0.311371 3.86062 0.315877 5.20605L14.0722 28.0721L24.1879 11.1407L5.18837 0.797253Z" fill="#225189"/>
<path d="M49.4105 24.8694L24.2688 11.183L24.1869 11.1407L14.0712 28.0721L14.1111 28.1418L13.9968 28.3285L23.8119 44.9887L23.8269 44.9792L49.4299 30.8316C50.5249 30.228 51.2028 29.0883 51.2028 27.8547V27.8431C51.1995 26.6064 50.513 25.4699 49.4105 24.8694Z" fill="#0067A2"/>
<path d="M70.0357 24.8498C69.3223 25.4408 68.4461 25.6972 67.0838 25.6972C66.7044 25.6972 66.4921 25.6824 66.1612 25.6518V28.9959H64.2515V19.218H67.6733C68.9752 19.218 69.7016 19.4386 70.3203 20.0168C70.8839 20.5656 71.1684 21.3042 71.1684 22.2096C71.1684 23.2923 70.7772 24.2273 70.0346 24.8488L70.0357 24.8498ZM67.4912 20.8051H66.1602V24.0647L66.4005 24.0774H66.6419C66.8542 24.0954 66.9911 24.0953 67.0665 24.0953C68.5517 24.0953 69.2016 23.5582 69.2016 22.3584C69.2016 21.2937 68.6702 20.8051 67.4901 20.8051H67.4912Z" fill="white"/>
<path d="M79.3302 28.9959L77.0443 25.0873H76.0927V28.9959H74.1851V19.218H77.5142C78.9692 19.218 79.6331 19.3932 80.2247 19.9419C80.7701 20.4337 81.0395 21.1428 81.0395 22.0619C81.0395 22.8185 80.8606 23.4253 80.4974 23.898C80.1191 24.375 79.771 24.5829 78.939 24.8024L81.4189 28.9948H79.3302V28.9959ZM77.3332 20.8051H76.0937V23.5012H77.3332C78.5456 23.5012 79.0737 23.0876 79.0737 22.1083C79.0737 21.1291 78.5736 20.8051 77.3332 20.8051Z" fill="white"/>
<path d="M88.9621 29.189C85.842 29.189 83.6628 27.087 83.6477 24.107C83.6477 21.0816 85.7978 19.0376 88.9621 19.0376C92.1263 19.0376 94.2581 21.0827 94.2581 24.107C94.2581 27.1313 92.0638 29.189 88.9621 29.189ZM88.9621 20.6542C87.0695 20.6542 85.676 22.1379 85.676 24.107C85.676 26.0761 87.0695 27.5629 88.9621 27.5629C90.8546 27.5629 92.233 26.094 92.233 24.107C92.233 22.12 90.8373 20.6542 88.9621 20.6542Z" fill="white"/>
<path d="M101.225 24.8045V28.997H99.3181V24.8045L96.2745 19.2191H98.3632L100.364 23.0401L102.467 19.2191H104.556L101.225 24.8045Z" fill="white"/>
<path d="M107.448 28.996V19.2181H113.533V20.8041H109.354V23.2164H112.778V24.8024H109.354V27.4141H113.73V28.9949H107.448V28.996Z" fill="white"/>
<path d="M123.843 21.453C123.192 20.9972 122.421 20.7745 121.541 20.7745C119.62 20.7745 118.244 22.1073 118.244 23.9592C118.244 26.0645 119.666 27.4426 121.845 27.4426C122.559 27.4426 123.149 27.3255 124.039 26.9846L124.389 28.5559C123.754 28.8366 123.497 28.9273 123.039 29.0297C122.558 29.132 122.026 29.189 121.438 29.189C119.877 29.189 118.759 28.806 117.819 27.9797C116.757 27.0448 116.136 25.5907 116.136 24.0648C116.136 22.6381 116.682 21.3507 117.667 20.401C118.666 19.4386 119.786 19.0376 121.437 19.0376C122.707 19.0376 123.705 19.3362 124.57 19.9725L123.843 21.453Z" fill="white"/>
<path d="M134.519 21.453C133.868 20.9972 133.095 20.7745 132.218 20.7745C130.294 20.7745 128.916 22.1073 128.916 23.9592C128.916 26.0645 130.341 27.4426 132.518 27.4426C133.232 27.4426 133.821 27.3255 134.712 26.9846L135.062 28.5559C134.427 28.8366 134.17 28.9273 133.712 29.0297C133.23 29.132 132.699 29.189 132.107 29.189C130.55 29.189 129.428 28.806 128.492 27.9797C127.431 27.0448 126.811 25.5907 126.811 24.0648C126.811 22.6381 127.355 21.3507 128.341 20.401C129.34 19.4386 130.46 19.0376 132.107 19.0376C133.381 19.0376 134.379 19.3362 135.243 19.9725L134.517 21.453H134.519Z" fill="white"/>
<path d="M138.425 28.9959V19.218H140.333V28.9959H138.425Z" fill="white"/>
<path d="M148.947 29.189C145.828 29.189 143.648 27.087 143.636 24.107C143.636 21.0816 145.783 19.0376 148.947 19.0376C152.111 19.0376 154.246 21.0826 154.246 24.107C154.246 27.1313 152.052 29.189 148.947 29.189ZM148.947 20.6542C147.056 20.6542 145.661 22.1379 145.661 24.107C145.661 26.0761 147.057 27.5629 148.947 27.5629C150.837 27.5629 152.218 26.094 152.218 24.107C152.218 22.12 150.825 20.6542 148.947 20.6542ZM149.492 18.7727H148.084L149.524 17.0231H151.204L149.492 18.7727Z" fill="white"/>
<path d="M164.254 29.0898L159.97 22.7562C159.939 22.7172 159.864 22.5811 159.758 22.3732C159.683 22.2561 159.654 22.1801 159.638 22.1653C159.577 22.0471 159.549 21.987 159.502 21.8245V28.9959H157.686V19.218H159.88L164.073 25.6508C164.087 25.6814 164.134 25.75 164.178 25.8587C164.224 25.961 164.254 26.018 164.271 26.0486L164.36 26.3019L164.453 26.4802V19.218H166.253V29.0888H164.255L164.254 29.0898Z" fill="white"/>
<path d="M67.7412 35.4382C67.3866 35.1913 67.0439 35.0879 66.5891 35.0879C65.5954 35.0879 64.8841 35.8392 64.8841 36.8881C64.8841 38.0436 65.5997 38.8034 66.7012 38.8034C67.1021 38.8034 67.4071 38.7401 67.7822 38.586L67.9471 39.0324C67.6625 39.1558 67.5483 39.2012 67.3123 39.2561C67.0784 39.3099 66.8855 39.3342 66.6667 39.3342C65.2516 39.3342 64.2515 38.3359 64.2515 36.9251C64.2515 35.5142 65.2667 34.5666 66.6107 34.5666C66.9157 34.5666 67.2131 34.612 67.4912 34.7207C67.6959 34.7903 67.794 34.8441 68.0311 35.0045L67.739 35.4382H67.7412Z" fill="white"/>
<path d="M72.3292 39.3352C70.9658 39.3352 69.9711 38.3338 69.9711 36.9472C69.9711 35.5606 70.9658 34.5676 72.3292 34.5676C73.6925 34.5676 74.6841 35.5691 74.6841 36.9472C74.6841 38.3253 73.6936 39.3352 72.3292 39.3352ZM72.3292 35.0646C71.3851 35.0646 70.6102 35.9152 70.6102 36.9461C70.6102 37.9771 71.3851 38.8308 72.3292 38.8308C73.2733 38.8308 74.0417 37.9803 74.0417 36.9461C74.0417 35.912 73.27 35.0646 72.3292 35.0646Z" fill="white"/>
<path d="M80.4025 39.2835L78.0336 35.701C78.0132 35.6651 77.9776 35.6102 77.9431 35.5385C77.9118 35.4931 77.8924 35.4625 77.8849 35.4393C77.8569 35.3876 77.8418 35.3517 77.817 35.2609V39.2413H77.2307V34.651H77.9916L80.3174 38.1523C80.3379 38.1797 80.3594 38.2188 80.381 38.2641C80.409 38.3338 80.4165 38.337 80.4672 38.472C80.4715 38.4805 80.479 38.5111 80.4952 38.5417V34.651H81.0761V39.2835H80.4047H80.4025Z" fill="white"/>
<path d="M86.4121 35.4266C86.1717 35.2884 86.0704 35.243 85.9228 35.1913C85.7428 35.1343 85.4604 35.0953 85.2761 35.0953C84.7437 35.0953 84.3794 35.3517 84.3794 35.7411C84.3794 36.0851 84.5864 36.2603 85.538 36.751C85.857 36.9198 86.106 37.0707 86.2784 37.2184C86.5048 37.4052 86.6384 37.7186 86.6384 38.0542C86.6384 38.8414 86.0413 39.3363 85.0951 39.3363C84.7782 39.3363 84.4786 39.2762 84.2296 39.1791C84.0529 39.1126 83.9311 39.0398 83.6261 38.8414L83.9236 38.3887C84.1865 38.5607 84.3008 38.624 84.4646 38.6873C84.6726 38.7633 84.8989 38.8055 85.1425 38.8055C85.6954 38.8055 86.0284 38.5491 86.0284 38.1122C86.0284 37.9793 86.0068 37.8653 85.9594 37.783C85.8807 37.6437 85.7439 37.5118 85.5617 37.4063C85.4831 37.3641 85.2179 37.2311 84.7793 36.9958C84.0744 36.6275 83.777 36.2635 83.777 35.7928C83.777 35.0626 84.3945 34.5719 85.3246 34.5719C85.5941 34.5719 85.8732 34.6078 86.1135 34.6838C86.3075 34.7502 86.4218 34.8041 86.6837 34.955L86.4142 35.4288L86.4121 35.4266Z" fill="white"/>
<path d="M92.2653 38.949C91.9172 39.2297 91.4861 39.3774 90.9774 39.3774C90.4687 39.3774 90.0333 39.2297 89.6863 38.949C89.295 38.6388 89.1377 38.2673 89.1377 37.6669V34.651H89.7218V37.498C89.7218 38.0647 89.7617 38.2251 89.9913 38.472C90.2241 38.7253 90.5657 38.8699 90.972 38.8699C91.3783 38.8699 91.7178 38.7253 91.9517 38.472C92.1802 38.2251 92.2233 38.0647 92.2233 37.498V34.651H92.8053V37.6669C92.8053 38.2789 92.6544 38.6377 92.2653 38.949Z" fill="white"/>
<path d="M95.6537 39.2413V34.651H96.2378V38.7622H98.334V39.2413H95.6548H95.6537Z" fill="white"/>
<path d="M101.309 35.128V39.2413H100.728V35.128H99.1628V34.651H102.871V35.128H101.308H101.309Z" fill="white"/>
<path d="M107.071 39.3352C105.706 39.3352 104.71 38.3338 104.71 36.9472C104.71 35.5606 105.705 34.5676 107.071 34.5676C108.438 34.5676 109.423 35.5691 109.423 36.9472C109.423 38.3253 108.436 39.3352 107.071 39.3352ZM107.071 35.0646C106.124 35.0646 105.351 35.9152 105.351 36.9461C105.351 37.9771 106.124 38.8308 107.071 38.8308C108.019 38.8308 108.784 37.9803 108.784 36.9461C108.784 35.912 108.006 35.0646 107.071 35.0646Z" fill="white"/>
<path d="M114.473 39.2413L113.18 37.2722H112.556V39.2413H111.972V34.651H113.401C113.969 34.651 114.237 34.7323 114.509 34.9887C114.739 35.2061 114.88 35.5374 114.88 35.8909C114.88 36.2444 114.73 36.5969 114.467 36.8406C114.273 37.0306 114.104 37.115 113.756 37.1931L115.142 39.2413H114.473ZM113.998 35.2609C113.857 35.1491 113.733 35.128 113.317 35.128H112.556V36.7953H113.317C113.935 36.7953 114.254 36.485 114.254 35.893C114.254 35.6007 114.171 35.3928 113.998 35.2599V35.2609Z" fill="white"/>
<path d="M117.542 39.2413V34.651H120.18V35.128H118.126V36.6602H119.826V37.1393H118.126V38.7622H120.241V39.2413H117.542Z" fill="white"/>
<path d="M125.16 35.4266C124.917 35.2884 124.819 35.243 124.671 35.1913C124.491 35.1343 124.208 35.0953 124.024 35.0953C123.489 35.0953 123.127 35.3517 123.127 35.7411C123.127 36.0851 123.335 36.2603 124.285 36.751C124.605 36.9198 124.853 37.0707 125.024 37.2184C125.252 37.4052 125.388 37.7186 125.388 38.0542C125.388 38.8414 124.791 39.3363 123.844 39.3363C123.524 39.3363 123.226 39.2762 122.979 39.1791C122.799 39.1126 122.68 39.0398 122.375 38.8414L122.673 38.3887C122.936 38.5607 123.05 38.624 123.214 38.6873C123.419 38.7633 123.648 38.8055 123.889 38.8055C124.445 38.8055 124.777 38.5491 124.777 38.1122C124.777 37.9793 124.755 37.8653 124.705 37.783C124.629 37.6437 124.491 37.5118 124.307 37.4063C124.228 37.3641 123.966 37.2311 123.524 36.9958C122.822 36.6275 122.522 36.2635 122.522 35.7928C122.522 35.0626 123.143 34.5719 124.073 34.5719C124.342 34.5719 124.621 34.6078 124.863 34.6838C125.052 34.7502 125.167 34.8041 125.431 34.955L125.161 35.4288L125.16 35.4266Z" fill="white"/>
</svg>
